<svg width="507" height="451" viewBox="0 0 507 451" fill="none" xmlns="http://www.w3.org/2000/svg">
<g clip-path="url(#clip0_797_2938)">
<path d="M0.166759 281.999C0.120785 252.302 0.0748089 222.605 0.244121 192.317C0.648753 191.553 0.82478 191.366 0.987514 191.167C12.1847 185.075 24.2232 182.005 36.8735 180.973C45.0416 180.306 53.1894 179.391 61.6785 178.555C61.6785 149.681 61.6785 120.666 61.6785 90.9157C41.5545 91.5386 21.5479 92.1241 2.15956 101.002C1.03256 101.014 0.599651 101.007 0.166759 100.999C0.120785 71.3023 0.0748089 41.6052 0.244121 11.3174C0.648753 10.5525 0.82478 10.3659 0.987514 10.1667C11.0994 4.90018 21.8195 1.71164 33.2112 1.02066C42.9277 0.431243 52.6563 0.0421148 62.9535 -0.463867C62.9535 29.7715 62.9535 59.1657 62.9535 87.5328C83.1741 88.5557 102.8 89.5485 122.855 90.563C122.855 62.7054 122.855 33.6438 122.855 3.72455C143.895 7.06436 163.31 13.7675 183 20.5145C183 35.3535 183 50.1721 183 64.9907C183 77.9906 182.92 90.9916 183.104 103.989C183.126 105.574 184.194 108.116 185.395 108.566C203.067 115.187 220.844 121.531 238.605 127.916C238.868 128.011 239.244 127.791 239.999 127.62C239.999 99.616 239.999 71.5136 239.999 42.3581C253.268 45.9548 265.885 49.3746 278.926 52.9095C278.926 38.5861 278.926 24.4807 278.926 10.3628C292.729 13.6479 306.178 16.7502 319.535 20.2046C320.668 20.4975 321.864 23.1308 321.892 24.6975C322.094 35.8604 322.146 47.0316 321.918 58.1936C321.842 61.924 322.581 63.8113 326.714 64.4571C337.317 66.1136 347.839 68.2858 358.953 70.356C358.953 55.9736 358.953 42.2028 358.953 28.2561C373.07 29.7431 386.708 31.1795 400.922 32.6767C400.922 46.3939 400.922 60.4601 400.922 74.6593C417.401 76.119 433.155 78.6602 448.32 84.001C469.022 91.2917 485.003 103.626 491.237 125.713C494.772 138.237 494.604 151.008 493.196 163.914C491.848 176.265 488.308 187.827 483.004 198.944C478.224 208.964 471.862 217.873 463.862 225.572C462.558 226.827 460.837 227.649 458.718 229.067C465.663 232.089 471.086 234.231 476.319 236.767C492.821 244.766 501.526 258.684 504.951 276.098C510.594 304.796 505.787 331.999 491.231 357.208C475.928 383.712 452.709 399.954 423.034 406.932C416.045 408.575 408.86 409.381 401.17 410.671C401.17 423.906 401.17 437.648 401.17 451.403C386.945 451.403 373.259 451.403 359.089 451.403C359.089 437.061 359.089 423.305 359.089 409.413C346.625 407.953 334.626 406.548 322.119 405.083C322.119 418.93 322.119 432.681 322.119 447.235C315.277 446.402 308.982 445.828 302.756 444.826C296.163 443.766 289.68 441.888 283.062 441.167C279.174 440.743 278.951 438.931 278.968 435.959C279.043 423.153 279 410.346 279 397.25C252.996 393.423 228.261 385.893 203.64 377.918C197.763 376.014 191.885 374.067 185.907 372.537C182.661 371.706 181.927 370.038 181.941 366.945C182.047 342.112 182 317.279 182 292.446C182 283.389 180.608 281.908 171.622 279.996C160.81 277.696 150.081 275.002 139.268 272.705C134.5 271.692 129.613 271.237 124.137 270.434C124.137 299.975 124.137 328.707 124.137 358.292C103.293 356.433 82.983 355.105 62.2649 359.105C62.2649 329.471 62.2649 300.098 62.2649 269.833C41.5327 271.465 21.3919 272.55 2.15596 282.002C1.03253 282.014 0.599651 282.007 0.166759 281.999ZM123 201.502C123.002 196.502 122.951 191.502 123.021 186.503C123.076 182.631 125.26 180.475 128.994 181.155C135.388 182.319 141.717 183.899 148.012 185.539C159.265 188.47 170.473 191.576 181.996 194.689C181.996 166.818 182.034 139.163 181.866 111.51C181.859 110.314 180.172 108.463 178.898 108.045C167.493 104.303 156.076 100.558 144.513 97.3523C138.016 95.5514 131.238 94.7663 124 93.4139C124 96.3256 124 98.1256 124 99.9257C124 124.925 124.011 149.923 123.991 174.922C123.987 180.434 122.458 181.56 117.746 180.972C108.143 179.774 98.5079 178.605 88.8511 178.126C82.2826 177.8 75.6537 178.936 69.0539 178.909C64.3676 178.89 62.8493 180.449 62.892 185.265C63.121 211.095 63.0001 236.929 63.0001 262.761C63.0001 264.386 63.0001 266.012 63.0001 267.468C83.1286 267.468 102.756 267.468 123 267.468C123 246.707 123 224.604 123 201.502ZM409.472 337.111C420.45 332.744 426.882 324.738 428.493 313.024C431.236 293.069 424.661 279.023 403.329 275.262C390.268 272.959 376.782 273.125 363.507 271.954C356.174 271.307 348.882 270.201 341.574 269.277C335.179 268.468 328.788 267.624 322.002 266.745C322.002 288.805 321.952 309.935 322.125 331.063C322.136 332.357 323.759 334.576 324.903 334.77C332.642 336.086 340.43 337.253 348.249 337.931C359.086 338.871 370.067 338.637 380.794 340.217C390.558 341.656 399.663 340.133 409.472 337.111ZM322 161.5C322 173.939 322 186.379 322 198.748C325.869 199.278 329.113 199.78 332.371 200.159C349.289 202.123 366.167 204.879 383.142 205.778C401.609 206.756 410.88 198.589 415.151 180.611C418.021 168.53 412.475 153.943 400.214 148.013C389.168 142.67 377.124 142.629 365.367 140.993C356.79 139.8 348.218 138.564 339.65 137.305C333.923 136.464 328.206 135.55 322 134.594C322 143.901 322 152.2 322 161.5ZM220.753 209.922C208.385 205.492 196.018 201.063 183.388 196.539C183.19 197.941 183.02 198.579 183.02 199.217C183.004 226.023 183.052 252.828 182.935 279.633C182.921 282.71 184.43 283.352 186.896 284.11C198.399 287.646 209.845 291.367 221.286 295.101C227.365 297.085 233.393 299.229 239.996 301.49C239.996 273.208 240.036 245.919 239.862 218.631C239.855 217.427 238.123 215.652 236.807 215.142C231.807 213.206 226.648 211.681 220.753 209.922Z" fill="#E36E1B"/>
<path d="M0.189697 282.301C0.599639 282.007 1.03252 282.014 1.78998 282.032C1.48058 282.229 0.846603 282.416 0.189697 282.301Z" fill="#E36E1B"/>
<path d="M0.189697 101.301C0.599639 101.007 1.03255 101.014 1.79001 101.032C1.48059 101.229 0.846603 101.416 0.189697 101.301Z" fill="#E36E1B"/>
<path d="M0.735951 191.142C0.824758 191.366 0.648731 191.552 0.313053 191.852C0.272617 191.69 0.378514 191.404 0.735951 191.142Z" fill="#E36E1B"/>
<path d="M0.735945 10.1421C0.824736 10.3656 0.648711 10.5523 0.313048 10.8515C0.272628 10.6904 0.378523 10.4041 0.735945 10.1421Z" fill="#E36E1B"/>
</g>
<defs>
<clipPath id="clip0_797_2938">
<rect width="507" height="451" fill="white"/>
</clipPath>
</defs>
</svg>
